<?xml version="1.0" encoding="UTF-8"?>
<svg xmlns="http://www.w3.org/2000/svg" viewBox="0 0 512 512" width="512" height="512">
  <g transform="translate(29, -62) scale(1.25)">
    <!-- Main Path 1 (originally fill="#934E33" transform="translate(64.125,65.6875)") -->
    <path d="M0 0 C23.73878504 0.33815933 43.6063215 16.01175705 59.61328125 32.0546875 C61.2307211 33.68751273 61.2307211 33.68751273 63.875 35.3125 C68.26453762 34.1887287 72.3094104 32.28389929 76.4375 30.4375 C107.60793238 16.8710942 140.35341603 19.33323592 171.875 30.3125 C174.59195821 31.3915756 177.26404844 32.48858851 179.90234375 33.74609375 C182.58864131 34.51740691 184.22298562 34.15085196 186.875 33.3125 C188.93399601 31.98111201 188.93399601 31.98111201 190.875 30.25 C207.90639055 16.48953876 227.47681139 8.05578264 249.4140625 7.68359375 C253.87125395 8.49353486 255.300455 9.59856126 257.875 13.3125 C258.36940136 16.35567857 258.54178071 18.72241459 258.4375 21.75 C258.41369263 22.9860498 258.41369263 22.9860498 258.3894043 24.24707031 C257.82643816 40.11707096 254.94715926 58.34656856 247.1640625 72.40234375 C245.49848428 75.49381943 244.36950084 77.82851679 243.875 81.3125 C245.55401777 85.89590565 248.0017456 89.6664912 250.76025391 93.66894531 C256.09181527 101.52967048 259.09734023 110.38937456 262.125 119.3125 C262.63740234 120.80789307 262.63740234 120.80789307 263.16015625 122.33349609 C268.37762647 138.18597907 270.77011385 154.71839313 263.5 170.25 C260.88653978 173.56708413 258.15454453 175.12134328 253.97265625 175.74609375 C243.4306287 175.75966135 243.4306287 175.75966135 238.875 171.3125 C231.12017932 161.60871644 226.47185769 149.57248918 221.625 138.25 C212.40750178 116.49322111 212.40750178 116.49322111 198.875 97.3125 C198.04226563 96.35085937 197.20953125 95.38921875 196.3515625 94.3984375 C178.14609855 73.64958697 156.14461429 64.10442748 128.859375 62.08984375 C114.17882957 61.61826198 99.46858345 64.98596606 85.875 70.3125 C85.11058594 70.60769531 84.34617187 70.90289062 83.55859375 71.20703125 C71.0123831 76.75777899 59.7277303 88.61271655 52.875 100.3125 C52.34777344 101.20710938 51.82054688 102.10171875 51.27734375 103.0234375 C43.70168136 116.90904964 42.08041512 132.01557969 45.875 147.3125 C49.94029473 158.33325993 57.59840228 166.73060699 67.875 172.3125 C77.07461215 176.5032368 86.7318762 179.64964335 96.34765625 182.7265625 C118.93694077 189.96599775 140.87508936 197.84996748 153.4453125 219.51953125 C157.25515727 226.96226078 160.38947275 233.89669429 160.875 242.3125 C157.97376324 243.16944894 156.37600144 243.50264906 153.5078125 242.4140625 C152.68023437 241.92679688 151.85265625 241.43953125 151 240.9375 C149.55753906 240.10605469 149.55753906 240.10605469 148.0859375 239.2578125 C145.83088342 237.89161186 143.5877393 236.51342854 141.3515625 235.1171875 C120.30129539 222.03716603 98.72246087 218.28391343 74.4375 215.3125 C63.39535257 213.95891637 52.39825548 212.5787708 41.49609375 210.33203125 C40.3740731 210.10501526 40.3740731 210.10501526 39.22938538 209.87341309 C20.18423886 205.75031051 3.28052961 194.78249237 -8.4375 179.25 C-20.95313402 159.13039066 -19.91001275 133.58702074 -15.125 111.3125 C-12.02302834 98.63487668 -5.84749127 85.54145347 2.91796875 75.81640625 C4.51066893 71.64938252 2.43623212 68.31079677 0.875 64.3125 C0.34859415 62.70656301 -0.16313654 61.09574215 -0.66015625 59.48046875 C-0.9113623 58.66932617 -1.16256836 57.85818359 -1.42138672 57.02246094 C-5.24337849 44.43838861 -7.27455569 33.19168637 -7.375 20 C-7.38450684 18.96069336 -7.39401367 17.92138672 -7.40380859 16.85058594 C-7.33140467 0.22986252 -7.33140467 0.22986252 0 0 Z" fill="#753E29" transform="translate(64.125,65.6875)"/>
    <!-- Main Path 2 (originally fill="#944D32" transform="translate(312.3125,307.75)") -->
    <path d="M0 0 C5.42531589 0.36781803 9.77367269 1.7390837 14.0625 5.125 C19.653403 12.43618085 18.19779682 22.16921864 17.328125 30.828125 C13.77401824 52.63305023 1.53358675 75.06970611 -13.3125 91.25 C-13.74755859 91.72743652 -14.18261719 92.20487305 -14.63085938 92.69677734 C-40.4590859 120.71985669 -75.13634608 133.96288554 -112.70703125 136.03515625 C-129.39722161 136.708685 -145.97465464 135.80048589 -162.3125 132.25 C-163.55644531 131.98445312 -164.80039063 131.71890625 -166.08203125 131.4453125 C-188.03740816 126.16105778 -207.89305176 115.41476186 -225.3125 101.25 C-226.2303125 100.53585937 -227.148125 99.82171875 -228.09375 99.0859375 C-232.55572514 95.60505931 -236.67651093 92.01144004 -240.62109375 87.95703125 C-249.3867254 79.11042379 -259.63750797 71.61393755 -270.3125 65.25 C-265.35448789 60.29198789 -256.91683645 60.7038242 -250.3125 60.25 C-253.90170377 56.32346505 -257.28776536 53.94870419 -262.0625 51.625 C-262.98023193 51.1772522 -262.98023193 51.1772522 -263.91650391 50.72045898 C-268.62058636 48.46984683 -273.31486454 46.71482419 -278.3125 45.25 C-276.64158869 39.12332519 -272.18561039 35.05636148 -266.9453125 31.76171875 C-254.296612 25.08273204 -240.23182135 24.93011311 -226.3125 27.25 C-227.075625 26.486875 -227.83875 25.72375 -228.625 24.9375 C-229.511875 24.050625 -230.39875 23.16375 -231.3125 22.25 C-231.910625 21.71375 -232.50875 21.1775 -233.125 20.625 C-234.3125 19.25 -234.3125 19.25 -234.3125 16.25 C-219.57365946 16.69194424 -208.25319424 18.9630555 -197.3125 29.25 C-196.63058594 29.88808594 -195.94867188 30.52617187 -195.24609375 31.18359375 C-192.32544751 34.01887664 -189.60917065 36.87254316 -187.3125 40.25 C-186.9825 37.28 -186.6525 34.31 -186.3125 31.25 C-175.11223783 36.85013108 -169.28607035 50.0876601 -163.43359375 60.63671875 C-155.65694398 74.50246789 -145.51754018 81.62140689 -130.3125 86.25 C-124.05753311 87.99096578 -117.78375891 88.82664661 -111.3125 89.25 C-110.56742188 89.30414063 -109.82234375 89.35828125 -109.0546875 89.4140625 C-88.4149364 90.18368034 -68.28755757 82.66670271 -53.125 68.875 C-51.15853096 67.02646905 -49.23489782 65.14543572 -47.3125 63.25 C-46.56871094 62.51910156 -45.82492187 61.78820312 -45.05859375 61.03515625 C-34.7764939 50.22989672 -29.41273839 36.29830217 -23.70703125 22.765625 C-22.12220217 19.0684498 -20.49519571 15.39963984 -18.76171875 11.76953125 C-18.38748779 10.98425049 -18.01325684 10.19896973 -17.62768555 9.38989258 C-14.88100132 4.92085837 -10.66076816 2.05184767 -5.75 0.375 C-3.83178223 0.27662986 -1.91529145 0.1445503 0 0 Z" fill="#763E28" transform="translate(312.3125,307.75)"/>
    <!-- Highlight Path 3 (originally fill="#B38273" transform="translate(78,324)") -->
    <path d="M0 0 C6.93 0.495 6.93 0.495 14 1 C14 1.33 14 1.66 14 2 C11.03 2 8.06 2 5 2 C5 3.65 5 5.3 5 7 C2.5 5.1875 2.5 5.1875 0 3 C0 2.01 0 1.02 0 0 Z" fill="#8F685C" transform="translate(78,324)"/>
    <!-- Highlight Path 4 (originally fill="#A87360" transform="translate(276,85)") -->
    <path d="M0 0 C-3.60957611 3.2910841 -6.12637153 4.54663921 -11 5 C-4.83050847 -1.61016949 -4.83050847 -1.61016949 0 0 Z" fill="#865C4D" transform="translate(276,85)"/>
    <!-- Highlight Path 5 (originally fill="#B78470" transform="translate(299,312)") -->
    <path d="M0 0 C0.66 0.33 1.32 0.66 2 1 C2 1.99 2 2.98 2 4 C-0.31 5.32 -2.62 6.64 -5 8 C-3.8141763 4.62496331 -2.72426311 2.35277269 0 0 Z" fill="#926A5A" transform="translate(299,312)"/>
    <!-- Highlight Path 6 (originally fill="#AB7A6A" transform="translate(47,215)") -->
    <path d="M0 0 C0.33 1.32 0.66 2.64 1 4 C1.66 4 2.32 4 3 4 C3 7.3 3 10.6 3 14 C-0.16470185 9.25294723 -0.10927475 5.68228705 0 0 Z" fill="#896255" transform="translate(47,215)"/>
    <!-- Highlight Path 7 (originally fill="#B88577" transform="translate(126,339)") -->
    <path d="M0 0 C0.99 0.33 1.98 0.66 3 1 C2.67 1.66 2.34 2.32 2 3 C1.77377919 4.70363822 1.59111527 6.41328701 1.4375 8.125 C1.31181641 9.49011719 1.31181641 9.49011719 1.18359375 10.8828125 C1.12300781 11.58148438 1.06242187 12.28015625 1 13 C0.34 13 -0.32 13 -1 13 C-0.67 8.71 -0.34 4.42 0 0 Z" fill="#936A5F" transform="translate(126,339)"/>
    <!-- Highlight Path 8 (originally fill="#AC7B68" transform="translate(328,228)") -->
    <path d="M0 0 C0.66 0 1.32 0 2 0 C1.49701212 4.40114397 -0.08772731 6.71195019 -3 10 C-3 8.68 -3 7.36 -3 6 C-2.34 6 -1.68 6 -1 6 C-0.67 4.02 -0.34 2.04 0 0 Z" fill="#8A6253" transform="translate(328,228)"/>
  </g>
</svg>