<svg version="1.1" id="Layer_1" xmlns="http://www.w3.org/2000/svg" xmlns:xlink="http://www.w3.org/1999/xlink" x="0px" y="0px"
	 width="100%" viewBox="0 0 1024 432" enable-background="new 0 0 1024 432" xml:space="preserve">
<path fill="#000000" opacity="1.000000" stroke="none" 
	d="
M277.342407,268.505066 
	C241.530167,285.644867 216.796799,278.208954 182.786194,240.320877 
	C184.178467,237.482971 187.444763,238.424316 189.697403,237.059540 
	C187.392838,232.750885 182.585648,232.386459 179.150879,230.151367 
	C181.092224,222.939850 185.481277,220.537262 198.379044,219.451614 
	C199.875885,218.223587 197.381607,217.091431 198.273071,215.876770 
	C201.024216,212.916275 210.833557,218.220474 216.235565,225.601044 
	C217.912064,226.271896 216.937286,223.863480 219.119507,224.278824 
	C222.370712,226.715973 224.223999,231.171982 226.149368,235.520920 
	C233.557617,252.254257 247.392258,257.376678 263.914612,249.488312 
	C270.375641,246.403610 274.186310,241.164764 274.420502,234.246307 
	C274.652924,227.379608 270.317230,222.789734 264.125214,220.274704 
	C256.727356,217.269897 249.126511,214.760559 241.754028,211.698471 
	C220.179276,202.737656 215.336853,179.400009 231.792618,162.565567 
	C243.422119,150.668427 258.349854,147.259888 274.415192,148.182175 
	C282.089569,148.622757 289.505920,150.722549 296.593628,153.737549 
	C298.993561,154.758438 300.988312,154.773041 303.074127,153.086380 
	C304.209442,152.168335 305.562439,151.303833 306.952576,150.955902 
	C311.600372,149.792572 313.214264,151.300369 312.249695,155.988556 
	C310.272308,165.599609 308.134796,175.177765 306.055573,184.767807 
	C305.519958,187.238083 304.491058,189.038239 301.482483,189.078934 
	C298.402161,189.120590 297.473511,187.222900 296.956909,184.778122 
	C295.781525,179.215714 294.114990,173.853012 291.360382,168.822800 
	C284.076721,155.522003 268.016296,154.355103 257.909912,160.069931 
	C246.791336,166.357117 246.532806,180.107361 257.257843,187.020981 
	C263.489075,191.037781 270.705566,192.766769 277.513580,195.431534 
	C283.416565,197.742065 289.241913,200.028427 294.206757,204.216278 
	C304.651978,213.026810 303.783539,224.562271 301.567719,235.997437 
	C298.784454,250.361176 290.163116,260.894958 277.342407,268.505066 
z"/>
<path fill="#000000" opacity="1.000000" stroke="none" 
	d="
M596.953308,183.003357 
	C597.451538,179.501678 599.168091,177.707062 602.217224,176.695221 
	C609.162170,174.390549 615.924377,171.431396 623.474731,171.763840 
	C632.555115,172.163666 635.804199,174.367172 642.833740,185.260117 
	C644.756531,183.736923 646.644714,182.226471 648.548340,180.735733 
	C655.941772,174.945786 664.108215,171.193893 673.683350,170.922623 
	C683.739197,170.637741 689.536438,174.322922 695.273743,185.171051 
	C698.245728,183.031525 701.146729,180.877167 704.114502,178.819168 
	C712.616272,172.923798 721.808044,169.609528 732.328979,171.530411 
	C741.224121,173.154449 746.112488,179.238129 746.414001,188.170242 
	C746.818237,200.147446 741.592285,210.857605 739.198547,222.198090 
	C738.408569,225.940765 737.331299,229.629684 737.136902,233.462326 
	C736.831238,239.490143 738.908936,241.660934 744.978699,241.721085 
	C746.626709,241.737427 748.290955,241.503342 749.924194,241.238800 
	C751.522705,240.979874 753.091125,240.535538 754.992126,240.099304 
	C755.673401,244.668152 754.370911,247.573746 750.282593,249.082550 
	C742.492676,251.957474 734.845886,255.402573 726.154480,253.723602 
	C713.196960,251.220566 707.388367,242.879654 710.213318,229.844345 
	C712.571411,218.963776 715.545288,208.217850 718.136414,197.385986 
	C719.044006,193.591919 719.562622,189.606659 715.932068,186.836365 
	C712.349792,184.102966 708.602966,185.471039 705.095398,187.235016 
	C698.622681,190.490189 693.974915,194.765244 692.505432,202.692017 
	C689.720459,217.715485 685.759155,232.517578 682.529541,247.464142 
	C681.669006,251.446548 679.843567,253.134827 675.760193,252.971024 
	C670.438538,252.757538 665.100891,252.978622 659.771362,252.913223 
	C654.430603,252.847687 653.940613,252.206589 655.131470,247.033829 
	C658.489807,232.447571 661.905640,217.874512 665.235229,203.281738 
	C666.010437,199.884033 666.848328,196.480820 666.746033,192.937286 
	C666.591248,187.574326 663.200867,184.661926 657.972351,185.470428 
	C649.409607,186.794510 642.128845,193.591263 640.234741,201.952682 
	C636.817688,217.036713 633.265259,232.091141 629.999207,247.207581 
	C629.116577,251.292603 627.395386,253.261307 622.989868,253.005188 
	C617.843262,252.705978 612.665710,252.976227 607.502563,252.914597 
	C601.604919,252.844193 601.342468,252.381607 602.699097,246.426468 
	C606.502563,229.730621 610.368042,213.047546 613.983154,196.310638 
	C616.227966,185.917999 612.381775,182.490509 601.687622,184.688339 
	C600.086914,185.017319 597.443970,187.509644 596.953308,183.003357 
z"/>
<path fill="#000000" opacity="1.000000" stroke="none" 
	d="
M330.417236,197.348267 
	C331.478271,184.715714 328.987885,182.541245 317.108887,185.176346 
	C316.007965,185.420563 314.876282,185.526169 313.434448,185.745468 
	C312.972961,181.244232 314.119171,178.149887 318.527039,176.655533 
	C325.616486,174.252090 332.562561,171.224319 340.289490,171.763321 
	C347.821716,172.288727 354.297241,174.764191 357.751495,181.907364 
	C360.205505,182.417374 361.385864,180.752319 362.819153,179.737274 
	C368.448669,175.750473 374.406830,172.533279 381.326385,171.422287 
	C399.085907,168.570847 412.627930,178.521851 414.119049,196.397888 
	C415.727051,215.674789 409.681580,232.379883 394.274750,244.657791 
	C380.609955,255.547516 365.343262,258.285309 348.856354,251.279816 
	C348.128601,250.970581 347.317108,250.858475 345.858643,250.473480 
	C344.034332,258.259796 342.071350,265.763702 340.602448,273.363098 
	C340.059387,276.172546 341.690094,278.596558 344.697449,279.416260 
	C347.260071,280.114746 349.897400,280.539154 352.501678,281.084930 
	C354.053497,281.410126 355.453400,281.880096 355.295441,283.905548 
	C355.145020,285.834778 354.724060,287.603119 352.441315,287.999725 
	C351.463959,288.169556 350.451477,288.188263 349.454926,288.188965 
	C333.460999,288.200378 317.466858,288.238373 301.473511,288.143372 
	C299.620026,288.132355 296.688141,289.280853 296.631500,285.640503 
	C296.584167,282.599457 298.326141,281.365295 301.265656,280.895355 
	C311.490784,279.260681 311.804321,278.923126 314.127716,268.778473 
	C319.547089,245.115677 324.919067,221.442032 330.417236,197.348267 
M357.344238,246.470856 
	C365.169800,248.121658 370.699371,244.316177 374.708740,238.342102 
	C383.626770,225.053848 386.180115,210.143723 384.154938,194.504135 
	C383.236816,187.413849 379.467072,184.407776 373.378021,184.294647 
	C366.691956,184.170395 359.699799,188.806747 358.407959,194.471741 
	C355.491608,207.260513 352.658569,220.068802 349.883087,232.888947 
	C348.540344,239.091171 350.724091,243.259476 357.344238,246.470856 
z"/>
<path fill="#000000" opacity="1.000000" stroke="none" 
	d="
M423.220337,218.349030 
	C425.982239,182.976608 457.636078,167.888092 484.278107,171.324463 
	C486.745911,171.642776 489.274994,171.755005 491.661713,172.390640 
	C512.367004,177.904800 521.374084,194.744339 515.671814,217.104111 
	C510.181580,238.632401 489.501221,254.622925 466.226166,255.211411 
	C460.420135,255.358200 454.648560,255.398895 448.903351,253.760666 
	C431.647400,248.840164 422.695221,236.860153 423.220337,218.349030 
M458.528534,194.028732 
	C453.754120,206.992050 451.692078,220.406387 452.408203,234.169128 
	C452.698975,239.757126 453.969666,245.460541 460.330872,247.343399 
	C466.526611,249.177277 471.767151,247.048325 475.853882,242.038223 
	C478.726837,238.516190 480.954529,234.621811 482.466217,230.361694 
	C487.150177,217.161850 488.763000,203.531494 487.664581,189.604782 
	C487.311188,185.123672 485.643311,181.071716 481.111725,179.176239 
	C476.423798,177.215363 471.934814,178.081207 467.917114,181.045898 
	C463.653809,184.191803 460.740448,188.404083 458.528534,194.028732 
z"/>
<path fill="#000000" opacity="1.000000" stroke="none" 
	d="
M815.088257,216.274323 
	C807.539124,217.739059 800.401062,219.138245 793.245483,220.540878 
	C792.678467,225.430756 793.617615,229.830490 795.530579,233.906479 
	C797.811157,238.765945 801.778870,241.483887 807.297729,241.925751 
	C818.363525,242.811676 827.586548,239.386337 834.864685,230.832718 
	C837.991272,227.158249 839.765991,227.343109 842.799438,230.870773 
	C844.021667,232.292221 843.987183,233.452576 842.932617,234.847733 
	C827.873535,254.769257 798.912781,261.941040 778.152100,249.126694 
	C765.409363,241.261353 762.201294,228.514343 764.278931,214.640762 
	C768.603638,185.761612 792.912720,168.105087 823.201843,171.215256 
	C826.673889,171.571793 830.139221,171.959290 833.476013,173.176926 
	C847.499634,178.294464 851.020752,193.031097 840.778259,204.031464 
	C833.944031,211.371353 824.720581,213.799133 815.088257,216.274323 
M803.294312,182.775803 
	C796.737427,191.312622 794.070984,201.100418 793.253601,212.108780 
	C798.131653,211.746323 802.209778,211.252075 806.146729,209.937149 
	C816.746704,206.396744 821.420471,198.536697 819.388306,187.585617 
	C818.666382,183.695511 817.202148,180.141876 813.000183,178.824112 
	C809.142822,177.614471 806.298279,179.618622 803.294312,182.775803 
z"/>
<path fill="#000000" opacity="1.000000" stroke="none" 
	d="
M536.260376,202.391632 
	C537.643188,196.341629 538.896667,190.686462 540.167664,184.952271 
	C536.955750,183.211197 533.903320,184.243958 531.019531,183.881012 
	C529.129944,183.643219 526.454590,184.047501 526.916138,180.978043 
	C527.298401,178.436142 526.750916,174.859009 530.991089,174.715591 
	C533.654175,174.625504 536.325745,174.568100 538.986206,174.675354 
	C541.743958,174.786499 543.286194,173.778244 543.885315,170.926834 
	C545.013428,165.557404 546.536194,160.270752 547.657104,154.900055 
	C548.322327,151.712875 549.945862,150.501129 553.188843,150.601608 
	C559.014587,150.782074 564.852722,150.743805 570.680969,150.601639 
	C574.685486,150.503937 575.515625,152.022064 574.459778,155.795914 
	C572.818848,161.660919 571.686401,167.668182 570.100098,174.666382 
	C575.933167,174.666382 581.018250,174.567688 586.095947,174.717346 
	C587.994629,174.773315 591.166321,173.746155 590.846252,177.259354 
	C590.593201,180.037964 590.429199,183.677734 586.198608,183.824280 
	C581.538879,183.985703 576.870117,183.995102 572.207458,183.925812 
	C569.299866,183.882584 567.678040,184.842468 566.993530,187.947983 
	C563.950012,201.755722 560.675598,215.512451 557.523499,229.296509 
	C557.266113,230.422028 557.259094,231.612396 557.205933,232.775833 
	C556.851929,240.524658 559.812378,243.389847 567.693298,242.558426 
	C571.287537,242.179245 574.826111,241.272003 578.609131,240.563187 
	C579.769165,244.104614 579.209778,247.327530 576.265076,248.575211 
	C566.103210,252.880753 555.617676,256.604706 544.328796,254.109848 
	C531.934937,251.370773 527.155334,242.925812 530.040283,229.538773 
	C531.966858,220.598984 534.093872,211.702393 536.260376,202.391632 
z"/>
</svg>